<?xml version="1.0" encoding="utf-8"?>
<!-- Generator: Adobe Illustrator 19.2.1, SVG Export Plug-In . SVG Version: 6.00 Build 0)  -->
<svg version="1.1" xmlns="http://www.w3.org/2000/svg" xmlns:xlink="http://www.w3.org/1999/xlink" x="0px" y="0px"
	 viewBox="0 0 66.5 66.3" style="enable-background:new 0 0 66.5 66.3;" xml:space="preserve">
<style type="text/css">
	.st0{fill:none;stroke:#000000;stroke-width:3;stroke-miterlimit:10;}
	.st1{display:none;}
</style>
<g id="Layer_1">
	<path class="st0" d="M59.4,7.2c-7.5-7.5-19.7-7.6-27.2-0.1c-5.2,5.1-6.8,12.5-4.9,19L1.5,51.6L2,63.9l12.5,0.9l4.5-4.5l0-5.6l5.6,0
		l0.5-0.5l0-5.6l5.6,0l0.5-0.5l0-5.6l5.6,0l3.1-3.1c6.5,1.9,13.9,0.3,19.1-4.8C66.8,26.9,66.9,14.7,59.4,7.2z M49.2,17.3
		c-2-2-2-5.3,0-7.3c2-2,5.3-2,7.3,0c2,2,2,5.3,0,7.3C54.5,19.4,51.2,19.4,49.2,17.3z"/>
</g>
<g id="Layer_2" class="st1">
	<path d="M59.4,6.2c-7.5-7.5-19.7-7.6-27.2-0.1c-5.2,5.1-6.8,12.5-4.9,19L1.5,50.6L2,62.9l12.5,0.9l4.5-4.5l0-5.6l5.6,0l0.5-0.5
		l0-5.6l5.6,0l0.5-0.5l0-5.6l5.6,0l3.1-3.1c6.5,1.9,13.9,0.3,19.1-4.8C66.8,25.9,66.9,13.7,59.4,6.2z M49.2,16.3c-2-2-2-5.3,0-7.3
		c2-2,5.3-2,7.3,0c2,2,2,5.3,0,7.3C54.5,18.4,51.2,18.4,49.2,16.3z"/>
</g>
</svg>
